<?xml version="1.0" encoding="UTF-8"?><svg id="JadeHS" xmlns="http://www.w3.org/2000/svg" viewBox="0 0 640.5 901.25"><defs><style>.cls-1{stroke:#000;}.cls-1,.cls-2{fill:none;}.cls-1,.cls-3{stroke-miterlimit:10;}.cls-4{fill:#fff;}.cls-5{fill:#ffbebe;}.cls-6{fill:#d6d6d6;}.cls-3{stroke:gray;}.cls-3,.cls-7{fill:gray;}</style></defs><path class="cls-6" d="M639.5,514l1-12c-49,21-48,29-149,26v-130.5c19.26-1.78,22.94-.98,21,19h18v-27h-39v-33h37v-9h-53l-2-123h51v57h9v-57h60c13,0,33.94,26.22,34,57l1,66c0,14.92-14.76,27-33,27v9c23.21,0,42-16.1,42-36l-1-66c1.27-28.13-15.35-60.59-43-66h-122c-3-57-56-75-133-85-41-1-139,1-154,7l1,76c1,13-21,9-29,9-15,14,8,49,17,56v43L3.5,371.5l1,17,122-36,69,183c-38.36-6.37-107.9-10.01-153-9v28c17.48-.57,97.53,1.1,161,10l29,108,10-3-26-104,395,51v-26.5l-179-23v-17c35.76,12.46,155.12,21.56,206-15l1-9v-.5c-15.86,4.49-61.54,41.47-207,16.5v-12c161,23,189-11,207-16ZM188,282h18v31h-18v-31ZM194.5,506.5l-58-157,41-14,69,174h1l120,6,26-47h14v67l-213-29ZM409.5,562.5l-202-25-9-21,211,31v15ZM409.5,449.5l-77-44,38-53c1.85-1.39,6.92-2.78,13.41-2.78,7.54,0,17,1.87,25.59,7.78v92ZM368.5,342.5c-13,7-39,45-44,59h-107l-13-27v-61h2v-32h-2v-78h-7l-3-58c24.29-5.75,65.32-8.24,96.99-8.24,17.89,0,32.79.8,40.01,2.24,3.85,9.24,11.26,31.84,14.47,68,.95,10.79,1.53,22.79,1.53,36v31h-1v5h33v-35h-20c-2-58-11-85-17-105h1c62,14,123,27,118,85l-40,20h-29v35h32v-7h1v-20l38-18v34l3,5v75h-52c-24-8-20.57-6-46-6ZM432.37,519.46l.13-162.96h50v39h-45v118l42,3v9l-47-6-.13-.04Z"/><polygon class="cls-7" points="380.5 85.5 380.5 97.5 369.5 97.5 369.5 110.5 333.5 110.5 333.5 73.5 347.5 73.5 347.5 56.5 287.5 56.5 287.5 72.5 295.5 72.5 295.5 110.5 263.5 110.5 263.5 72.5 275.5 72.5 275.5 56.5 215.5 56.5 215.5 72.5 224.5 72.5 224.5 110.5 192.5 110.5 192.5 72.5 204.5 72.5 204.5 56.5 191.5 56.5 191.5 32.5 368.5 32.5 368.5 56.5 358.5 56.5 358.5 73.5 369.5 73.5 369.5 85.5 380.5 85.5"/><rect class="cls-7" x="156.5" y="124.5" width="15" height="14"/><rect class="cls-7" x="137.5" y="194.5" width="33" height="10"/><rect class="cls-7" x="206.5" y="162.5" width="9" height="12"/><rect class="cls-7" x="221.5" y="162.5" width="10" height="8"/><rect class="cls-2" x="303.5" y="283.5" width="38" height="30"/><path class="cls-7" d="M424.5,272.5v7h-32v-35h9v-59h-31v59h9v35h-76v-72h-87v70h6v43h-6v70h87v-73h121v7h35v-52h-35ZM288.5,369.5h-28v-31h28v31ZM288.5,315.5h-28v-33h28v33ZM288.5,257.5h-28v-31h28v31ZM341.5,313.5h-38v-30h38v30ZM391.5,223.5h-12v-18h12v18Z"/><rect class="cls-2" x="260.5" y="226.5" width="28" height="31"/><rect class="cls-2" x="260.5" y="282.5" width="28" height="33"/><rect class="cls-2" x="260.5" y="338.5" width="28" height="31"/><rect class="cls-2" x="260.5" y="226.5" width="28" height="31"/><rect class="cls-2" x="260.5" y="338.5" width="28" height="31"/><rect class="cls-2" x="260.5" y="282.5" width="28" height="33"/><rect class="cls-2" x="303.5" y="283.5" width="38" height="30"/><rect class="cls-3" x="188" y="282" width="18" height="31"/><polygon class="cls-7" points="198.01 678.49 180.62 683.99 166.78 640.27 133.48 650.67 123.93 620.13 174.52 604.33 184.05 634.8 184.17 634.76 198.01 678.49"/><rect class="cls-5" x="318.5" y="243.5" width="29" height="31"/><rect class="cls-7" x="535.5" y="152.5" width="60" height="42" transform="translate(739 -392) rotate(90)"/><polygon class="cls-2" points="407.5 468.5 407.5 535.5 194.5 506.5 136.5 349.5 177.5 335.5 246.5 509.5 247.5 509.5 367.5 515.5 393.5 468.5 407.5 468.5"/><rect class="cls-2" x="379.5" y="205.5" width="12" height="18"/><path class="cls-2" d="M461.5,224.5l-40,20h-20v-59h-31v59h-11c-2-58-11-85-17-105h1c62,14,123,27,118,85Z"/><polygon class="cls-2" points="437.5 395.5 437.5 513.5 479.5 516.5 479.5 525.5 432.5 519.5 432.37 519.46 432.5 356.5 482.5 356.5 482.5 395.5 437.5 395.5"/><polygon class="cls-2" points="409.5 547.5 409.5 562.5 207.5 537.5 198.5 516.5 409.5 547.5"/><polygon class="cls-7" points="626.5 337.5 626.5 347.5 617.5 347.5 617.5 352.5 583.5 352.5 583.5 365.5 571.5 365.5 571.5 371.5 574.5 371.5 574.5 408.5 539.5 408.5 539.5 371.5 552.5 371.5 552.5 365.5 547.5 365.5 547.5 340.5 555.5 340.5 555.5 328.5 522.5 328.5 522.5 326.5 512.5 326.5 512.5 315.5 522.5 315.5 522.5 290.5 558.5 290.5 558.5 278.5 545.5 278.5 545.5 242.5 593.5 242.5 593.5 302.5 582.5 302.5 582.5 316.5 617.5 316.5 617.5 337.5 626.5 337.5"/><path class="cls-4" d="M463.5,268.5v-34l-38,18v20h34v52h-35v-7h-121v73h-87v-70h6v-43h-6v-70h87v72h43v-5h-28v-31h29c0-13.21-.58-25.21-1.53-36-3.21-36.16-10.62-58.76-14.47-68-7.22-1.44-22.12-2.24-40.01-2.24-31.67,0-72.7,2.49-96.99,8.24l3,58h7v78h2v32h-2v61l13,27h107c5-14,31-52,44-59,25.43,0,22-2,46,6h52v-75l-3-5ZM221.5,162.5h10v8h-10v-8ZM215.5,174.5h-9v-12h9v12Z"/><line class="cls-1" x1="216.5" y1="390.5" x2="216" y2="390.5"/></svg>