<?xml version="1.0" encoding="UTF-8"?><svg id="JadeHS" xmlns="http://www.w3.org/2000/svg" viewBox="0 0 1838.93 1722.14"><defs><style>.cls-1{stroke:#000;}.cls-1,.cls-2,.cls-3{fill:none;}.cls-1,.cls-2,.cls-4{stroke-miterlimit:10;}.cls-2{stroke:#b3b3b3;}.cls-5{fill:#ddffe4;}.cls-6{fill:#b3b3b3;}.cls-7{fill:#ffbebe;}.cls-4{stroke:gray;}.cls-4,.cls-8{fill:gray;}</style></defs><path class="cls-3" d="M1000.46,932.5c-13.51-1.66-22.86,1.35-23.75,8.52-.88,7.18,7.99,11.27,21.5,12.93,13.51,1.67,21.67-1.1,22.55-8.28.89-7.18-6.79-11.51-20.3-13.17ZM779.5,879.5l9,21,171.5,21.22c7.54-3.55,17.97-5.17,30.5-4.77v-6.45l-211-31ZM769,645v31h18v-31h-18ZM964.91,712.72c-6.49,0-11.56,1.39-13.41,2.78l-38,53,77,44v-92c-8.59-5.91-18.05-7.78-25.59-7.78ZM1044.5,631.5v-34l-38,18v20h-1v7h-32v-35h29l40-20c5-58-56-71-118-85h-1c6,20,15,47,17,105h20v35h-33v-5h1v-31c0-13.21-.58-25.21-1.53-36-3.21-36.16-10.62-58.76-14.47-68-7.22-1.44-22.12-2.24-40.01-2.24-31.67,0-72.7,2.49-96.99,8.24l3,58h7v78h2v32h-2v61l13,27h107c5-14,31-52,44-59,25.43,0,22-2,46,6h52v-75l-3-5ZM1063.5,758.5v-39h-50l-.13,162.96.13.04,47,6v-9l-42-3v-118h45ZM1209.5,710.5l-1-66c-.06-30.78-21-57-34-57h-60v57h-9v-57h-51l2,123h53v9h-37v33l43.5.5v24.54c63.47,5.38,55.09,5.15,50-31.54v-7c35-2,43.5-13.58,43.5-28.5ZM1209.5,710.5l-1-66c-.06-30.78-21-57-34-57h-60v57h-9v-57h-51l2,123h53v9h-37v33l43.5.5v24.54c63.47,5.38,55.09,5.15,50-31.54v-7c35-2,43.5-13.58,43.5-28.5ZM1063.5,758.5v-39h-50l-.13,162.96.13.04,47,6v-9l-42-3v-118h45ZM1044.5,631.5v-34l-38,18v20h-1v7h-32v-35h29l40-20c5-58-56-71-118-85h-1c6,20,15,47,17,105h20v35h-33v-5h1v-31c0-13.21-.58-25.21-1.53-36-3.21-36.16-10.62-58.76-14.47-68-7.22-1.44-22.12-2.24-40.01-2.24-31.67,0-72.7,2.49-96.99,8.24l3,58h7v78h2v32h-2v61l13,27h107c5-14,31-52,44-59,25.43,0,22-2,46,6h52v-75l-3-5ZM1000.46,932.5c-13.51-1.66-22.86,1.35-23.75,8.52-.88,7.18,7.99,11.27,21.5,12.93,13.51,1.67,21.67-1.1,22.55-8.28.89-7.18-6.79-11.51-20.3-13.17ZM779.5,879.5l9,21,171.5,21.22c7.54-3.55,17.97-5.17,30.5-4.77v-6.45l-211-31ZM964.91,712.72c-6.49,0-11.56,1.39-13.41,2.78l-38,53,77,44v-92c-8.59-5.91-18.05-7.78-25.59-7.78ZM769,645v31h18v-31h-18Z"/><polygon class="cls-8" points="961.5 448.5 961.5 460.5 950.5 460.5 950.5 473.5 914.5 473.5 914.5 436.5 928.5 436.5 928.5 419.5 868.5 419.5 868.5 435.5 876.5 435.5 876.5 473.5 844.5 473.5 844.5 435.5 856.5 435.5 856.5 419.5 796.5 419.5 796.5 435.5 805.5 435.5 805.5 473.5 773.5 473.5 773.5 435.5 785.5 435.5 785.5 419.5 772.5 419.5 772.5 395.5 949.5 395.5 949.5 419.5 939.5 419.5 939.5 436.5 950.5 436.5 950.5 448.5 961.5 448.5"/><rect class="cls-8" x="737.5" y="487.5" width="15" height="14"/><rect class="cls-8" x="718.5" y="557.5" width="33" height="10"/><rect class="cls-8" x="787.5" y="525.5" width="9" height="12"/><rect class="cls-8" x="802.5" y="525.5" width="10" height="8"/><rect class="cls-3" x="884.5" y="646.5" width="38" height="30"/><path class="cls-8" d="M1005.5,635.5v7h-32v-35h9v-59h-31v59h9v35h-76v-72h-87v70h6v43h-6v70h87v-73h121v7h35v-52h-35ZM869.5,732.5h-28v-31h28v31ZM869.5,678.5h-28v-33h28v33ZM869.5,620.5h-28v-31h28v31ZM922.5,676.5h-38v-30h38v30ZM972.5,586.5h-12v-18h12v18Z"/><rect class="cls-3" x="841.5" y="589.5" width="28" height="31"/><rect class="cls-3" x="841.5" y="645.5" width="28" height="33"/><rect class="cls-3" x="841.5" y="701.5" width="28" height="31"/><rect class="cls-3" x="841.5" y="589.5" width="28" height="31"/><rect class="cls-3" x="841.5" y="701.5" width="28" height="31"/><rect class="cls-3" x="841.5" y="645.5" width="28" height="33"/><rect class="cls-3" x="884.5" y="646.5" width="38" height="30"/><rect class="cls-4" x="769" y="645" width="18" height="31"/><polygon class="cls-8" points="794.01 1055.49 776.62 1060.99 762.78 1017.27 729.48 1027.67 719.93 997.13 770.52 981.33 780.05 1011.8 780.17 1011.76 794.01 1055.49"/><rect class="cls-7" x="899.5" y="606.5" width="29" height="31"/><rect class="cls-8" x="1116.5" y="515.5" width="60" height="42" transform="translate(1683 -610) rotate(90)"/><rect class="cls-3" x="960.5" y="568.5" width="12" height="18"/><path class="cls-3" d="M1042.5,587.5l-40,20h-20v-59h-31v59h-11c-2-58-11-85-17-105h1c62,14,123,27,118,85Z"/><polygon class="cls-3" points="1018.5 758.5 1018.5 876.5 1060.5 879.5 1060.5 888.5 1013.5 882.5 1013.37 882.46 1013.5 719.5 1063.5 719.5 1063.5 758.5 1018.5 758.5"/><path class="cls-3" d="M990.5,910.5v6.45c-12.53-.4-22.96,1.22-30.5,4.77l-171.5-21.22-9-21,211,31Z"/><polygon class="cls-8" points="1207.5 700.5 1207.5 710.5 1198.5 710.5 1198.5 715.5 1164.5 715.5 1164.5 728.5 1152.5 728.5 1152.5 734.5 1155.5 734.5 1155.5 771.5 1120.5 771.5 1120.5 734.5 1133.5 734.5 1133.5 728.5 1128.5 728.5 1128.5 703.5 1136.5 703.5 1136.5 691.5 1103.5 691.5 1103.5 689.5 1093.5 689.5 1093.5 678.5 1103.5 678.5 1103.5 653.5 1139.5 653.5 1139.5 641.5 1126.5 641.5 1126.5 605.5 1174.5 605.5 1174.5 665.5 1163.5 665.5 1163.5 679.5 1198.5 679.5 1198.5 700.5 1207.5 700.5"/><path class="cls-3" d="M1044.5,631.5v-34l-38,18v20h34v52h-35v-7h-121v73h-87v-70h6v-43h-6v-70h87v72h43v-5h-28v-31h29c0-13.21-.58-25.21-1.53-36-3.21-36.16-10.62-58.76-14.47-68-7.22-1.44-22.12-2.24-40.01-2.24-31.67,0-72.7,2.49-96.99,8.24l3,58h7v78h2v32h-2v61l13,27h107c5-14,31-52,44-59,25.43,0,22-2,46,6h52v-75l-3-5ZM802.5,525.5h10v8h-10v-8ZM796.5,537.5h-9v-12h9v12Z"/><line class="cls-1" x1="797.5" y1="753.5" x2="797" y2="753.5"/><path class="cls-3" d="M1020.76,945.67c-.88,7.18-9.04,9.95-22.55,8.28-13.51-1.66-22.38-5.75-21.5-12.93.89-7.17,10.24-10.18,23.75-8.52,13.51,1.66,21.19,5.99,20.3,13.17Z"/><path class="cls-2" d="M1116,777.54c-.16-.01-.33-.03-.5-.04"/><path class="cls-2" d="M1168.71,746.04c-.07-.51-.14-1.02-.21-1.54"/><rect class="cls-8" x="699.6" y="1070.87" width="42.1" height="49.78" transform="translate(-214.39 176.12) rotate(-12.14)"/><path class="cls-6" d="M1577.05,1012.01c-1.98-26.3-40.82-31.33-52.05-8.01l-1.97,20.91c2.97,23.09,41.97,29.09,51.97,3.09.02-.06.03-.1.05-.12l-.04.12,19.99,2v-16l-17.95-1.99ZM1550,1032c-8.28,0-15-6.72-15-15s6.72-15,15-15,15,6.72,15,15-6.72,15-15,15Z"/><path class="cls-6" d="M1155,936c217-23,245-178,304-180l136,7v-4l-136-8c-61,1-91,153-300,179-13,0-135-22-145.5-25v-12c91.5,12,105.5,8,121.5,4l-8-7c-3,1-31,2-54.5,1v-130.5c19.26-1.78,22.94-.98,21,19l22.5.5c17.24,1.52,29.49,2.47,38.08,2.47,25.91,0,18.54-8.65,14.63-36.43,35.07.31,50.28-12.62,49.79-35.54l-1-66c1.27-28.13-15.35-60.59-43-66h-122c-3-57-56-75-133-85-62.5-8.5-139,1-154,7l1,76c1,13-21,9-29,9-15,14,8,49,17,56l-9.5,47.5-52.24,8.54-104.76-202.54-69-75c-4-4-9-19.23-9-43h-3c0,24.87,3,38,9,45l69,75,103,201-76.12,12.56-10.88-40.56-44-87-156-206h-7l156,212,43,83,10,40,.43-.05-128.31,21.17-233.12-355.12h-13l95.93,170-95.93,1v12h103l191,338c-79,22-184,39-294,51v22c102.67-3.85,266.93-34.16,325-35l112,208h21l-72-202c96-11,131.3-12.15,168-7l48,209h8l-40-209,149.61,12.01c5.67,10.95,24,17.59,49.13,20.68,23.35,2.88,39.94.16,47.99-8.14l477.27,64.45,2-21-478.41-69.75c-5.93-6.86-17.31-11.74-33.09-14.7v-6.55c33.5,8,141.5,23,141.5,23ZM1105.5,587.5v57h9v-57h60c13,0,33.94,26.22,34,57l1,66c0,14.92-8.5,26.5-43.5,28.5v7c5.09,36.69,13.47,36.92-50,31.54v-24.54l-43.5-.5v-33h37v-9h-53l-2-123h51ZM872.49,500.26c17.89,0,32.79.8,40.01,2.24,3.85,9.24,11.26,31.84,14.47,68,.95,10.79,1.53,22.79,1.53,36v31h-1v5h33v-35h-20c-2-58-11-85-17-105h1c62,14,123,27,118,85l-40,20h-29v35h32v-7h1v-20l38-18v34l3,5v75h-52c-24-8-20.57-6-46-6-13,7-39,45-44,59h-107l-13-27v-61h2v-32h-2v-78h-7l-3-58c24.29-5.75,65.32-8.24,96.99-8.24ZM990.5,720.5v92l-77-44,38-53c1.85-1.39,6.92-2.78,13.41-2.78,7.54,0,17,1.87,25.59,7.78ZM769,645h18v31h-18v-31ZM750,702l77.5,170.5h1l120,6,26-47h14v67l-214.5-24.5-72-161,48-11ZM586,898l-99-154,209-31,89,200c-24.14-4.01-98.1-16.13-199-15ZM950,930l-159-17-17-34,216.5,31.5v6.45c-12.53-.4-32.5,4.05-40.5,13.05ZM1020.76,945.67c-.88,7.18-9.04,9.95-22.55,8.28-13.51-1.66-22.38-5.75-21.5-12.93.89-7.17,10.24-10.18,23.75-8.52,13.51,1.66,21.19,5.99,20.3,13.17ZM1013.37,882.46l.13-162.96h50v39h-45v118l42,3v9l-47-6-.13-.04Z"/><path class="cls-6" d="M1575,1028s-.02.06-.02.08c.01-.02.02-.05.03-.08h-.01Z"/><polyline class="cls-5" points="1177 502 1243 689 1185 790 1087 792 1085 880 1132 880 1146 904 1151 922 1267 892 1432 746 1595 750 1595 377 983 377 983 381 1070 454 1177 502"/><line class="cls-3" x1="1285.43" y1="761.93" x2="1178.43" y2="713.93"/><polyline class="cls-5" points="1241 928 1178 948 1478 989 1535 981 1595 992 1595 771 1453 764 1342 879"/><polyline class="cls-5" points="229 1145 655 1145 548 945 414 960 229 981"/></svg>