<?xml version="1.0" encoding="UTF-8"?><svg id="JadeHS" xmlns="http://www.w3.org/2000/svg" viewBox="0 0 959 901.25"><defs><style>.cls-1{stroke:#000;}.cls-1,.cls-2,.cls-3{fill:none;}.cls-1,.cls-2,.cls-4{stroke-miterlimit:10;}.cls-2{stroke:#b3b3b3;}.cls-5{fill:#b3b3b3;}.cls-6{fill:#ffbebe;}.cls-4{stroke:gray;}.cls-4,.cls-7{fill:gray;}.cls-8{fill:#d6d6d6;}</style></defs><path class="cls-8" d="M641.46,569.5c-13.51-1.66-22.86,1.35-23.75,8.52-.88,7.18,7.99,11.27,21.5,12.93,13.51,1.67,21.67-1.1,22.55-8.28.89-7.18-6.79-11.51-20.3-13.17Z"/><path class="cls-3" d="M641.46,569.5c-13.51-1.66-22.86,1.35-23.75,8.52-.88,7.18,7.99,11.27,21.5,12.93,13.51,1.67,21.67-1.1,22.55-8.28.89-7.18-6.79-11.51-20.3-13.17ZM420.5,516.5l9,21,171.5,21.22c7.54-3.55,17.97-5.17,30.5-4.77v-6.45l-211-31ZM615.5,468.5l-26,47-120-6h-1l-69-174-41,14,58,157,213,29v-67h-14ZM410,282v31h18v-31h-18ZM605.91,349.72c-6.49,0-11.56,1.39-13.41,2.78l-38,53,77,44v-92c-8.59-5.91-18.05-7.78-25.59-7.78ZM685.5,268.5v-34l-38,18v20h-1v7h-32v-35h29l40-20c5-58-56-71-118-85h-1c6,20,15,47,17,105h20v35h-33v-5h1v-31c0-13.21-.58-25.21-1.53-36-3.21-36.16-10.62-58.76-14.47-68-7.22-1.44-22.12-2.24-40.01-2.24-31.67,0-72.7,2.49-96.99,8.24l3,58h7v78h2v32h-2v61l13,27h107c5-14,31-52,44-59,25.43,0,22-2,46,6h52v-75l-3-5ZM704.5,395.5v-39h-50l-.13,162.96.13.04,47,6v-9l-42-3v-118h45ZM850.5,347.5l-1-66c-.06-30.78-21-57-34-57h-60v57h-9v-57h-51l2,123h53v9h-37v33l43.5.5v24.54c63.47,5.38,55.09,5.15,50-31.54v-7c35-2,43.5-13.58,43.5-28.5ZM850.5,347.5l-1-66c-.06-30.78-21-57-34-57h-60v57h-9v-57h-51l2,123h53v9h-37v33l43.5.5v24.54c63.47,5.38,55.09,5.15,50-31.54v-7c35-2,43.5-13.58,43.5-28.5ZM704.5,395.5v-39h-50l-.13,162.96.13.04,47,6v-9l-42-3v-118h45ZM685.5,268.5v-34l-38,18v20h-1v7h-32v-35h29l40-20c5-58-56-71-118-85h-1c6,20,15,47,17,105h20v35h-33v-5h1v-31c0-13.21-.58-25.21-1.53-36-3.21-36.16-10.62-58.76-14.47-68-7.22-1.44-22.12-2.24-40.01-2.24-31.67,0-72.7,2.49-96.99,8.24l3,58h7v78h2v32h-2v61l13,27h107c5-14,31-52,44-59,25.43,0,22-2,46,6h52v-75l-3-5ZM641.46,569.5c-13.51-1.66-22.86,1.35-23.75,8.52-.88,7.18,7.99,11.27,21.5,12.93,13.51,1.67,21.67-1.1,22.55-8.28.89-7.18-6.79-11.51-20.3-13.17ZM420.5,516.5l9,21,171.5,21.22c7.54-3.55,17.97-5.17,30.5-4.77v-6.45l-211-31ZM605.91,349.72c-6.49,0-11.56,1.39-13.41,2.78l-38,53,77,44v-92c-8.59-5.91-18.05-7.78-25.59-7.78ZM615.5,468.5l-26,47-120-6h-1l-69-174-41,14,58,157,213,29v-67h-14ZM410,282v31h18v-31h-18Z"/><polygon class="cls-7" points="602.5 85.5 602.5 97.5 591.5 97.5 591.5 110.5 555.5 110.5 555.5 73.5 569.5 73.5 569.5 56.5 509.5 56.5 509.5 72.5 517.5 72.5 517.5 110.5 485.5 110.5 485.5 72.5 497.5 72.5 497.5 56.5 437.5 56.5 437.5 72.5 446.5 72.5 446.5 110.5 414.5 110.5 414.5 72.5 426.5 72.5 426.5 56.5 413.5 56.5 413.5 32.5 590.5 32.5 590.5 56.5 580.5 56.5 580.5 73.5 591.5 73.5 591.5 85.5 602.5 85.5"/><rect class="cls-7" x="378.5" y="124.5" width="15" height="14"/><rect class="cls-7" x="359.5" y="194.5" width="33" height="10"/><rect class="cls-7" x="428.5" y="162.5" width="9" height="12"/><rect class="cls-7" x="443.5" y="162.5" width="10" height="8"/><rect class="cls-3" x="525.5" y="283.5" width="38" height="30"/><path class="cls-7" d="M646.5,272.5v7h-32v-35h9v-59h-31v59h9v35h-76v-72h-87v70h6v43h-6v70h87v-73h121v7h35v-52h-35ZM510.5,369.5h-28v-31h28v31ZM510.5,315.5h-28v-33h28v33ZM510.5,257.5h-28v-31h28v31ZM563.5,313.5h-38v-30h38v30ZM613.5,223.5h-12v-18h12v18Z"/><rect class="cls-3" x="482.5" y="226.5" width="28" height="31"/><rect class="cls-3" x="482.5" y="282.5" width="28" height="33"/><rect class="cls-3" x="482.5" y="338.5" width="28" height="31"/><rect class="cls-3" x="482.5" y="226.5" width="28" height="31"/><rect class="cls-3" x="482.5" y="338.5" width="28" height="31"/><rect class="cls-3" x="482.5" y="282.5" width="28" height="33"/><rect class="cls-3" x="525.5" y="283.5" width="38" height="30"/><rect class="cls-4" x="410" y="282" width="18" height="31"/><polygon class="cls-7" points="420.01 650.49 402.62 655.99 388.78 612.27 355.48 622.67 345.93 592.13 396.52 576.33 406.05 606.8 406.17 606.76 420.01 650.49"/><rect class="cls-6" x="540.5" y="243.5" width="29" height="31"/><rect class="cls-7" x="757.5" y="152.5" width="60" height="42" transform="translate(961 -614) rotate(90)"/><polygon class="cls-3" points="629.5 468.5 629.5 535.5 416.5 506.5 358.5 349.5 399.5 335.5 468.5 509.5 469.5 509.5 589.5 515.5 615.5 468.5 629.5 468.5"/><rect class="cls-3" x="601.5" y="205.5" width="12" height="18"/><path class="cls-3" d="M683.5,224.5l-40,20h-20v-59h-31v59h-11c-2-58-11-85-17-105h1c62,14,123,27,118,85Z"/><polygon class="cls-3" points="659.5 395.5 659.5 513.5 701.5 516.5 701.5 525.5 654.5 519.5 654.37 519.46 654.5 356.5 704.5 356.5 704.5 395.5 659.5 395.5"/><path class="cls-3" d="M631.5,547.5v6.45c-12.53-.4-22.96,1.22-30.5,4.77l-171.5-21.22-9-21,211,31Z"/><polygon class="cls-7" points="848.5 337.5 848.5 347.5 839.5 347.5 839.5 352.5 805.5 352.5 805.5 365.5 793.5 365.5 793.5 371.5 796.5 371.5 796.5 408.5 761.5 408.5 761.5 371.5 774.5 371.5 774.5 365.5 769.5 365.5 769.5 340.5 777.5 340.5 777.5 328.5 744.5 328.5 744.5 326.5 734.5 326.5 734.5 315.5 744.5 315.5 744.5 290.5 780.5 290.5 780.5 278.5 767.5 278.5 767.5 242.5 815.5 242.5 815.5 302.5 804.5 302.5 804.5 316.5 839.5 316.5 839.5 337.5 848.5 337.5"/><path class="cls-3" d="M685.5,268.5v-34l-38,18v20h34v52h-35v-7h-121v73h-87v-70h6v-43h-6v-70h87v72h43v-5h-28v-31h29c0-13.21-.58-25.21-1.53-36-3.21-36.16-10.62-58.76-14.47-68-7.22-1.44-22.12-2.24-40.01-2.24-31.67,0-72.7,2.49-96.99,8.24l3,58h7v78h2v32h-2v61l13,27h107c5-14,31-52,44-59,25.43,0,22-2,46,6h52v-75l-3-5ZM443.5,162.5h10v8h-10v-8ZM437.5,174.5h-9v-12h9v12Z"/><line class="cls-1" x1="438.5" y1="390.5" x2="438" y2="390.5"/><path class="cls-8" d="M661.76,582.67c-.88,7.18-9.04,9.95-22.55,8.28-13.51-1.66-22.38-5.75-21.5-12.93.89-7.17,10.24-10.18,23.75-8.52,13.51,1.66,21.19,5.99,20.3,13.17Z"/><path class="cls-3" d="M661.76,582.67c-.88,7.18-9.04,9.95-22.55,8.28-13.51-1.66-22.38-5.75-21.5-12.93.89-7.17,10.24-10.18,23.75-8.52,13.51,1.66,21.19,5.99,20.3,13.17Z"/><path class="cls-2" d="M757,414.54c-.16-.01-.33-.03-.5-.04"/><path class="cls-2" d="M809.71,383.04c-.07-.51-.14-1.02-.21-1.54"/><path class="cls-5" d="M687.59,571.25c-5.93-6.86-17.31-11.74-33.09-14.7v-6.55c35.76,12.46,155.12,21.56,206-15l1-9v-.5c-15.86,4.49-61.54,41.47-207,16.5v-12c161,23,189-11,207-16l1-12c-49,21-48,29-149,26v-130.5c19.26-1.78,22.94-.98,21,19l22.5.5c17.24,1.52,29.49,2.47,38.08,2.47,25.91,0,18.54-8.65,14.63-36.43,35.07.31,50.28-12.62,49.79-35.54l-1-66c1.27-28.13-15.35-60.59-43-66h-122c-3-57-56-75-133-85-62.5-8.5-139,1-154,7l1,76c1,13-21,9-29,9-15,14,8,49,17,56v43l-178.67,53.46-40.39-159.64-23.75,9.15,77.01,305.59c-56.68.91-130.99,2.93-229.7,6.44v28c102.67-3.85,178.57-6.07,236.64-6.91l52.81,209.53,25.55-4.12-52.04-205.71c83.61-.66,125.84,2.06,162.54,7.21l38.5,182.5,9-2-34.5-179.5,151.11,19.51c5.67,10.95,24,17.59,49.13,20.68,23.35,2.88,39.94.16,47.99-8.14l272.27,27.95v-26.5l-271.41-27.75ZM746.5,224.5v57h9v-57h60c13,0,33.94,26.22,34,57l1,66c0,14.92-8.5,26.5-43.5,28.5v7c5.09,36.69,13.47,36.92-50,31.54v-24.54l-43.5-.5v-33h37v-9h-53l-2-123h51ZM704.5,356.5v39h-45v118l42,3v9l-47-6-.13-.04.13-162.96h50ZM513.49,137.26c17.89,0,32.79.8,40.01,2.24,3.85,9.24,11.26,31.84,14.47,68,.95,10.79,1.53,22.79,1.53,36v31h-1v5h33v-35h-20c-2-58-11-85-17-105h1c62,14,123,27,118,85l-40,20h-29v35h32v-7h1v-20l38-18v34l3,5v75h-52c-24-8-20.57-6-46-6-13,7-39,45-44,59h-107l-13-27v-61h2v-32h-2v-78h-7l-3-58c24.29-5.75,65.32-8.24,96.99-8.24ZM631.5,357.5v92l-77-44,38-53c1.85-1.39,6.92-2.78,13.41-2.78,7.54,0,17,1.87,25.59,7.78ZM410,282h18v31h-18v-31ZM399.5,335.5l69,174h1l120,6,26-47h14v67l-213-29-58-157,41-14ZM255.97,529.69l-35.15-138.93,127.68-38.26,69,183c-24.14-4.01-60.63-6.94-161.53-5.81ZM429.5,537.5l-9-21,211,31v6.45c-12.53-.4-22.96,1.22-30.5,4.77l-171.5-21.22ZM661.76,582.67c-.88,7.18-9.04,9.95-22.55,8.28-13.51-1.66-22.38-5.75-21.5-12.93.89-7.17,10.24-10.18,23.75-8.52,13.51,1.66,21.19,5.99,20.3,13.17Z"/><rect class="cls-7" x="340.6" y="707.87" width="42.1" height="49.78" transform="translate(-146.06 92.48) rotate(-12.14)"/></svg>