<?xml version="1.0" encoding="UTF-8"?><svg xmlns="http://www.w3.org/2000/svg" viewBox="0 0 1930 1134"><defs><style>.cls-1{fill:#dc0812;}.cls-2{fill:gray;}</style></defs><g id="Ebene_7"><rect class="cls-2" y="38" width="1930" height="1096"/><rect class="cls-1" x="1812" width="3" height="3"/></g><g id="Sechseck_bass"><path class="cls-1" d="M902.79,115l56.29,97.5-56.29,97.5h-112.58l-56.29-97.5,56.29-97.5h112.58M905.68,110h-118.36l-59.18,102.5,59.18,102.5h118.36l59.18-102.5-59.18-102.5h0Z"/></g><g id="Sechseck_mid1"><path class="cls-1" d="M902.95,433l56.29,97.5-56.29,97.5h-112.58l-56.29-97.5,56.29-97.5h112.58M905.84,428h-118.36l-59.18,102.5,59.18,102.5h118.36l59.18-102.5-59.18-102.5h0Z"/></g><g id="Sechseck_mid2"><path class="cls-1" d="M902.95,751l56.29,97.5-56.29,97.5h-112.58l-56.29-97.5,56.29-97.5h112.58M905.84,746h-118.36l-59.18,102.5,59.18,102.5h118.36l59.18-102.5-59.18-102.5h0Z"/></g><g id="Sechseck_mid3"><path class="cls-1" d="M1160.95,265l56.29,97.5-56.29,97.5h-112.58l-56.29-97.5,56.29-97.5h112.58M1163.84,260h-118.36l-59.18,102.5,59.18,102.5h118.36l59.18-102.5-59.18-102.5h0Z"/></g><g id="Sechseck_mid4"><path class="cls-1" d="M1160.95,580l56.29,97.5-56.29,97.5h-112.58l-56.29-97.5,56.29-97.5h112.58M1163.84,575h-118.36l-59.18,102.5,59.18,102.5h118.36l59.18-102.5-59.18-102.5h0Z"/><path class="cls-1" d="M1160.95,895l56.29,97.5-56.29,97.5h-112.58l-56.29-97.5,56.29-97.5h112.58M1163.84,890h-118.36l-59.18,102.5,59.18,102.5h118.36l59.18-102.5-59.18-102.5h0Z"/></g></svg>