<?xml version="1.0" encoding="UTF-8"?><svg xmlns="http://www.w3.org/2000/svg" viewBox="0 0 517.5 1079.92"><defs><style>.cls-1{fill:#dc0812;}</style></defs><g id="Sechseck_bass"><path class="cls-1" d="M463.28,907.09l48.45,83.91-48.45,83.91h-96.89s-48.45-83.91-48.45-83.91l48.45-83.91h96.89M466.16,902.09h-102.67s-51.33,88.91-51.33,88.91l51.33,88.91h102.67s51.33-88.91,51.33-88.91l-51.33-88.91h0Z"/></g><g id="Sechseck_mid1"><path class="cls-1" d="M151.28,726.09l48.45,83.91-48.45,83.91H54.38s-48.45-83.91-48.45-83.91l48.45-83.91h96.89M154.16,721.09H51.5S.16,810,.16,810l51.33,88.91h102.67s51.33-88.91,51.33-88.91l-51.33-88.91h0Z"/></g><g id="Sechseck_mid2"><path class="cls-1" d="M463.28,545.09l48.45,83.91-48.45,83.91h-96.89s-48.45-83.91-48.45-83.91l48.45-83.91h96.89M466.16,540.09h-102.67s-51.33,88.91-51.33,88.91l51.33,88.91h102.67s51.33-88.91,51.33-88.91l-51.33-88.91h0Z"/></g><g id="Sechseck_mid3"><path class="cls-1" d="M151.28,365.09l48.45,83.91-48.45,83.91H54.38S5.93,449,5.93,449l48.45-83.91h96.89M154.16,360.09H51.5S.16,449,.16,449l51.33,88.91h102.67s51.33-88.91,51.33-88.91l-51.33-88.91h0Z"/></g><g id="Sechseck_mid4"><path class="cls-1" d="M463.28,185.09l48.45,83.91-48.45,83.91h-96.89s-48.45-83.91-48.45-83.91l48.45-83.91h96.89M466.16,180.09h-102.67s-51.33,88.91-51.33,88.91l51.33,88.91h102.67s51.33-88.91,51.33-88.91l-51.33-88.91h0Z"/></g><g id="Sechseck_high"><path class="cls-1" d="M151.12,5l48.45,83.91-48.45,83.91H54.22S5.77,88.91,5.77,88.91L54.22,5h96.89M154,0H51.33S0,88.91,0,88.91l51.33,88.91h102.67s51.33-88.91,51.33-88.91L154,0h0Z"/></g></svg>