<?xml version="1.0" encoding="UTF-8"?><svg xmlns="http://www.w3.org/2000/svg" viewBox="0 0 494.87 985"><defs><style>.cls-1{fill:#dc0812;}</style></defs><g id="Sechseck_bass"><path class="cls-1" d="M174.65,5l56.29,97.5-56.29,97.5H62.07L5.77,102.5,62.07,5h112.58M177.54,0H59.18L0,102.5l59.18,102.5h118.36l59.18-102.5L177.54,0h0Z"/></g><g id="Sechseck_mid1"><path class="cls-1" d="M174.81,323l56.29,97.5-56.29,97.5H62.22L5.93,420.5l56.29-97.5h112.58M177.69,318H59.34L.16,420.5l59.18,102.5h118.36l59.18-102.5-59.18-102.5h0Z"/></g><g id="Sechseck_mid2"><path class="cls-1" d="M174.81,641l56.29,97.5-56.29,97.5H62.22l-56.29-97.5,56.29-97.5h112.58M177.69,636H59.34L.16,738.5l59.18,102.5h118.36l59.18-102.5-59.18-102.5h0Z"/></g><g id="Sechseck_mid3"><path class="cls-1" d="M432.81,155l56.29,97.5-56.29,97.5h-112.58l-56.29-97.5,56.29-97.5h112.58M435.69,150h-118.36l-59.18,102.5,59.18,102.5h118.36l59.18-102.5-59.18-102.5h0Z"/></g><g id="Sechseck_mid4"><path class="cls-1" d="M432.81,470l56.29,97.5-56.29,97.5h-112.58l-56.29-97.5,56.29-97.5h112.58M435.69,465h-118.36l-59.18,102.5,59.18,102.5h118.36l59.18-102.5-59.18-102.5h0Z"/><path class="cls-1" d="M432.81,785l56.29,97.5-56.29,97.5h-112.58l-56.29-97.5,56.29-97.5h112.58M435.69,780h-118.36l-59.18,102.5,59.18,102.5h118.36l59.18-102.5-59.18-102.5h0Z"/></g></svg>