<?xml version="1.0" encoding="UTF-8"?><svg xmlns="http://www.w3.org/2000/svg" viewBox="0 0 1566 200"><defs><style>.cls-1{fill:#dc0812;}</style></defs><g id="Wuerfel_bass"><path class="cls-1" d="M185,5v180H5V5h180M190,0H0v190h190V0h0Z"/></g><g id="Wuerfel_mid1"><path class="cls-1" d="M460,7v180h-180V7h180M465,2h-190v190h190V2h0Z"/></g><g id="Wuerfel_mid2"><path class="cls-1" d="M736,9v180h-180V9h180M741,4h-190v190h190V4h0Z"/></g><g id="Wuerfel_mid3"><path class="cls-1" d="M1013,11v180h-180V11h180M1018,6h-190v190h190V6h0Z"/></g><g id="Wuerfel_mid4"><path class="cls-1" d="M1289,13v180h-180V13h180M1294,8h-190v190h190V8h0Z"/></g><g id="Wuerfel_high"><path class="cls-1" d="M1561,15v180h-180V15h180M1566,10h-190v190h190V10h0Z"/></g></svg>