<?xml version="1.0" encoding="UTF-8"?><svg xmlns="http://www.w3.org/2000/svg" viewBox="0 0 1720 196"><defs><style>.cls-1{fill:#dc0812;}</style></defs><g id="Wuerfel_bass"><path class="cls-1" d="M185,5v180H5V5h180M190,0H0v190h190V0h0Z"/></g><g id="Wuerfel_mid1"><path class="cls-1" d="M491,5v180h-180V5h180M496,0h-190v190h190V0h0Z"/></g><g id="Wuerfel_mid2"><path class="cls-1" d="M797,5v180h-180V5h180M802,0h-190v190h190V0h0Z"/></g><g id="Wuerfel_mid3"><path class="cls-1" d="M1103,5v180h-180V5h180M1108,0h-190v190h190V0h0Z"/></g><g id="Wuerfel_mid4"><path class="cls-1" d="M1409,11v180h-180V11h180M1414,6h-190v190h190V6h0Z"/></g><g id="Wuerfel_high"><path class="cls-1" d="M1715,5v180h-180V5h180M1720,0h-190v190h190V0h0Z"/></g></svg>