<?xml version="1.0" encoding="UTF-8"?><svg xmlns="http://www.w3.org/2000/svg" viewBox="0 0 1930 1134"><defs><style>.cls-1{fill:#dc0812;}.cls-2{fill:gray;}</style></defs><g id="Hintergrund"><rect class="cls-2" y="38" width="1930" height="1096"/><rect class="cls-1" x="1812" width="3" height="3"/></g><g id="Wuerfel_bass"><path class="cls-1" d="M277,437v180H97v-180h180M282,432H92v190h190v-190h0Z"/></g><g id="Wuerfel_mid1"><path class="cls-1" d="M583,437v180h-180v-180h180M588,432h-190v190h190v-190h0Z"/></g><g id="Wuerfel_mid2"><path class="cls-1" d="M889,437v180h-180v-180h180M894,432h-190v190h190v-190h0Z"/></g><g id="Wuerfel_mid3"><path class="cls-1" d="M1195,437v180h-180v-180h180M1200,432h-190v190h190v-190h0Z"/></g><g id="Wuerfel_mid4"><path class="cls-1" d="M1501,443v180h-180v-180h180M1506,438h-190v190h190v-190h0Z"/></g><g id="Wuerfel_high"><path class="cls-1" d="M1807,437v180h-180v-180h180M1812,432h-190v190h190v-190h0Z"/></g></svg>